<svg xmlns="http://www.w3.org/2000/svg" xmlns:xlink="http://www.w3.org/1999/xlink" width="475" height="203" viewBox="0 0 475 203"><defs><clipPath id="a"><rect width="157" height="53" fill="none"/></clipPath></defs><g transform="translate(-1205 -1838)"><text transform="translate(1271 1872)" fill="#8784d8" font-size="25" font-family="Rajdhani-SemiBold, Rajdhani" font-weight="600"><tspan x="-65.2" y="0">Selfish chain</tspan></text><text transform="translate(1272 1969)" fill="#82c99d" font-size="25" font-family="Rajdhani-SemiBold, Rajdhani" font-weight="600"><tspan x="-66.2" y="0">Honest chain</tspan></text><g transform="translate(673 -259)"><g transform="translate(694 2195)" clip-path="url(#a)"><g transform="translate(-693 -1485)"><g transform="translate(693 1485)" fill="rgba(130,201,157,0.5)" stroke="#707070" stroke-width="1"><rect width="53" height="53" stroke="none"/><rect x="0.5" y="0.5" width="52" height="52" fill="none"/></g></g><g transform="translate(-641 -1485)"><g transform="translate(693 1485)" fill="rgba(130,201,157,0.5)" stroke="#707070" stroke-width="1"><rect width="53" height="53" stroke="none"/><rect x="0.5" y="0.5" width="52" height="52" fill="none"/></g></g><g transform="translate(-589 -1485)"><g transform="translate(693 1485)" fill="rgba(130,201,157,0.5)" stroke="#707070" stroke-width="1"><rect width="53" height="53" stroke="none"/><rect x="0.5" y="0.5" width="52" height="52" fill="none"/></g></g><g transform="translate(-537 -1485)"><g transform="translate(693 1485)" fill="rgba(130,201,157,0.5)" stroke="#707070" stroke-width="1"><rect width="53" height="53" stroke="none"/><rect x="0.5" y="0.5" width="52" height="52" fill="none"/></g></g></g><text transform="translate(721 2227)" fill="#4e4e4e" font-size="15" font-family="KohinoorTelugu-Regular, Kohinoor Telugu"><tspan x="-4.305" y="0">n</tspan></text><text transform="translate(773 2227)" fill="#4e4e4e" font-size="15" font-family="KohinoorTelugu-Regular, Kohinoor Telugu"><tspan x="-11.302" y="0">n+1</tspan></text><text transform="translate(824 2227)" fill="#4e4e4e" font-size="15" font-family="KohinoorTelugu-Regular, Kohinoor Telugu"><tspan x="-11.79" y="0">n+2</tspan></text></g><g transform="translate(1523 1936)" fill="#82c99d"><path d="M 52.5 52.5 L 0.5 52.5 L 0.5 0.5 L 52.5 0.5 L 52.5 52.5 Z" stroke="none"/><path d="M 1 1 L 1 52 L 52 52 L 52 1 L 1 1 M 0 0 L 53 0 L 53 53 L 0 53 L 0 0 Z" stroke="none" fill="#707070"/></g><g transform="translate(323 380)"><g transform="translate(1208 1638)" fill="rgba(130,201,157,0.5)" stroke="#707070" stroke-width="1"><rect width="23" height="23" stroke="none"/><rect x="0.5" y="0.5" width="22" height="22" fill="none"/></g><g transform="translate(1208 1638)" fill="rgba(130,201,157,0.5)" stroke="#707070" stroke-width="1"><rect width="23" height="23" stroke="none"/><rect x="0.5" y="0.5" width="22" height="22" fill="none"/></g><text transform="translate(1296 1655)" fill="#4e4e4e" font-size="15" font-family="KohinoorTelugu-Light, Kohinoor Telugu" font-weight="300"><tspan x="-55.493" y="0">Block just mined</tspan></text><g transform="translate(1208 1638)" fill="#82c99d" stroke="#707070" stroke-width="1"><rect width="23" height="23" stroke="none"/><rect x="0.5" y="0.5" width="22" height="22" fill="none"/></g></g><g transform="translate(-52 -318)"><text transform="translate(1601 2286)" fill="#4e4e4e" font-size="15" font-family="KohinoorTelugu-Regular, Kohinoor Telugu"><tspan x="-11.865" y="0">n+3</tspan></text></g><g transform="translate(1367 1838)" clip-path="url(#a)"><g transform="translate(-693 -1485)"><g transform="translate(693 1485)" fill="rgba(130,201,157,0.5)" stroke="#707070" stroke-width="1"><rect width="53" height="53" stroke="none"/><rect x="0.5" y="0.5" width="52" height="52" fill="none"/></g></g><g transform="translate(-641 -1485)"><g transform="translate(693 1485)" fill="rgba(130,201,157,0.5)" stroke="#707070" stroke-width="1"><rect width="53" height="53" stroke="none"/><rect x="0.5" y="0.5" width="52" height="52" fill="none"/></g></g><g transform="translate(-589 -1485)"><g transform="translate(693 1485)" fill="rgba(130,201,157,0.5)" stroke="#707070" stroke-width="1"><rect width="53" height="53" stroke="none"/><rect x="0.5" y="0.5" width="52" height="52" fill="none"/></g></g><g transform="translate(-537 -1485)"><g transform="translate(693 1485)" fill="rgba(130,201,157,0.5)" stroke="#707070" stroke-width="1"><rect width="53" height="53" stroke="none"/><rect x="0.5" y="0.5" width="52" height="52" fill="none"/></g></g></g><text transform="translate(1394 1870)" fill="#4e4e4e" font-size="15" font-family="KohinoorTelugu-Regular, Kohinoor Telugu"><tspan x="-4.305" y="0">n</tspan></text><text transform="translate(1446 1870)" fill="#4e4e4e" font-size="15" font-family="KohinoorTelugu-Regular, Kohinoor Telugu"><tspan x="-11.302" y="0">n+1</tspan></text><text transform="translate(1497 1870)" fill="#4e4e4e" font-size="15" font-family="KohinoorTelugu-Regular, Kohinoor Telugu"><tspan x="-11.79" y="0">n+2</tspan></text><g transform="translate(1627 1838)" fill="rgba(135,132,216,0.5)" stroke="#707070" stroke-width="1"><rect width="53" height="53" stroke="none"/><rect x="0.5" y="0.5" width="52" height="52" fill="none"/></g><text transform="translate(1653 1870)" fill="#4e4e4e" font-size="15" font-family="KohinoorTelugu-Regular, Kohinoor Telugu"><tspan x="-12.015" y="0">n+5</tspan></text><g transform="translate(1575 1838)" fill="rgba(135,132,216,0.5)" stroke="#707070" stroke-width="1"><rect width="53" height="53" stroke="none"/><rect x="0.5" y="0.5" width="52" height="52" fill="none"/></g><g transform="translate(1575 1838)" fill="#8784d8"><path d="M53,53h0Z" stroke="none"/><path d="M 0 53 L 53 53 L 0 53 Z" stroke="none" fill="#707070"/></g><text transform="translate(1601 1870)" fill="#4e4e4e" font-size="15" font-family="KohinoorTelugu-Regular, Kohinoor Telugu"><tspan x="-11.97" y="0">n+4</tspan></text><g transform="translate(159 380)"><g transform="translate(1208 1638)" fill="rgba(130,201,157,0.5)" stroke="#707070" stroke-width="1"><rect width="23" height="23" stroke="none"/><rect x="0.5" y="0.5" width="22" height="22" fill="none"/></g><g transform="translate(1208 1638)" fill="#bdbbe5" stroke="#707070" stroke-width="1"><rect width="23" height="23" stroke="none"/><rect x="0.5" y="0.5" width="22" height="22" fill="none"/></g><text transform="translate(1283 1655)" fill="#4e4e4e" font-size="15" font-family="KohinoorTelugu-Light, Kohinoor Telugu" font-weight="300"><tspan x="-42.233" y="0">Selfish block</tspan></text></g><g transform="translate(-2 380)"><g transform="translate(1208 1638)" fill="rgba(130,201,157,0.5)" stroke="#707070" stroke-width="1"><rect width="23" height="23" stroke="none"/><rect x="0.5" y="0.5" width="22" height="22" fill="none"/></g><g transform="translate(1208 1638)" fill="rgba(130,201,157,0.5)" stroke="#707070" stroke-width="1"><rect width="23" height="23" stroke="none"/><rect x="0.5" y="0.5" width="22" height="22" fill="none"/></g><text transform="translate(1241 1655)" fill="#4e4e4e" font-size="15" font-family="KohinoorTelugu-Light, Kohinoor Telugu" font-weight="300"><tspan x="0" y="0">Public block</tspan></text><g transform="translate(1208 1638)" fill="#badec8" stroke="#707070" stroke-width="1"><rect width="23" height="23" stroke="none"/><rect x="0.5" y="0.5" width="22" height="22" fill="none"/></g></g><g transform="translate(1523 1838)" fill="rgba(135,132,216,0.5)" stroke="#707070" stroke-width="1"><rect width="53" height="53" stroke="none"/><rect x="0.5" y="0.5" width="52" height="52" fill="none"/></g><text transform="translate(1549 1870)" fill="#4e4e4e" font-size="15" font-family="KohinoorTelugu-Regular, Kohinoor Telugu"><tspan x="-11.865" y="0">n+3</tspan></text></g></svg>