<svg xmlns="http://www.w3.org/2000/svg" xmlns:xlink="http://www.w3.org/1999/xlink" width="502" height="289" viewBox="0 0 502 289"><defs><clipPath id="a"><rect width="157" height="53" fill="none"/></clipPath></defs><g transform="translate(-1205 -1005)"><g transform="translate(1363 1005)" clip-path="url(#a)"><g transform="translate(-693 -1485)"><g transform="translate(693 1485)" fill="#badec8"><path d="M 52.5 52.5 L 0.5 52.5 L 0.5 0.5 L 52.5 0.5 L 52.5 52.5 Z" stroke="none"/><path d="M 1 1 L 1 52 L 52 52 L 52 1 L 1 1 M 0 0 L 53 0 L 53 53 L 0 53 L 0 0 Z" stroke="none" fill="#707070"/></g></g><g transform="translate(-641 -1485)"><g transform="translate(693 1485)" fill="#badec8"><path d="M 52.5 52.5 L 0.5 52.5 L 0.5 0.5 L 52.5 0.5 L 52.5 52.5 Z" stroke="none"/><path d="M 1 1 L 1 52 L 52 52 L 52 1 L 1 1 M 0 0 L 53 0 L 53 53 L 0 53 L 0 0 Z" stroke="none" fill="#707070"/></g></g><g transform="translate(-589 -1485)"><g transform="translate(693 1485)" fill="#badec8"><path d="M 52.5 52.5 L 0.5 52.5 L 0.5 0.5 L 52.5 0.5 L 52.5 52.5 Z" stroke="none"/><path d="M 1 1 L 1 52 L 52 52 L 52 1 L 1 1 M 0 0 L 53 0 L 53 53 L 0 53 L 0 0 Z" stroke="none" fill="#707070"/></g></g><g transform="translate(-537 -1485)"><g transform="translate(693 1485)" fill="#badec8"><path d="M 52.5 52.5 L 0.5 52.5 L 0.5 0.5 L 52.5 0.5 L 52.5 52.5 Z" stroke="none"/><path d="M 1 1 L 1 52 L 52 52 L 52 1 L 1 1 M 0 0 L 53 0 L 53 53 L 0 53 L 0 0 Z" stroke="none" fill="#707070"/></g></g></g><text transform="translate(1273 1038)" fill="#8784d8" font-size="25" font-family="Rajdhani-SemiBold, Rajdhani" font-weight="600"><tspan x="-65.2" y="0">Selfish chain</tspan></text><text transform="translate(1274 1181)" fill="#82c99d" font-size="25" font-family="Rajdhani-SemiBold, Rajdhani" font-weight="600"><tspan x="-66.2" y="0">Honest chain</tspan></text><g transform="translate(1363 1148)" clip-path="url(#a)"><g transform="translate(-693 -1485)"><g transform="translate(693 1485)" fill="rgba(130,201,157,0.5)" stroke="#707070" stroke-width="1"><rect width="53" height="53" stroke="none"/><rect x="0.5" y="0.5" width="52" height="52" fill="none"/></g></g><g transform="translate(-641 -1485)"><g transform="translate(693 1485)" fill="rgba(130,201,157,0.5)" stroke="#707070" stroke-width="1"><rect width="53" height="53" stroke="none"/><rect x="0.5" y="0.5" width="52" height="52" fill="none"/></g></g><g transform="translate(-589 -1485)"><g transform="translate(693 1485)" fill="rgba(130,201,157,0.5)" stroke="#707070" stroke-width="1"><rect width="53" height="53" stroke="none"/><rect x="0.5" y="0.5" width="52" height="52" fill="none"/></g></g><g transform="translate(-537 -1485)"><g transform="translate(693 1485)" fill="rgba(130,201,157,0.5)" stroke="#707070" stroke-width="1"><rect width="53" height="53" stroke="none"/><rect x="0.5" y="0.5" width="52" height="52" fill="none"/></g></g></g><g transform="translate(1637 1201)" fill="rgba(130,201,157,0.5)" stroke="#707070" stroke-width="1"><rect width="53" height="53" stroke="none"/><rect x="0.5" y="0.5" width="52" height="52" fill="none"/></g><g transform="translate(1637 1095)" fill="rgba(135,132,216,0.5)" stroke="#707070" stroke-width="1"><rect width="53" height="53" stroke="none"/><rect x="0.5" y="0.5" width="52" height="52" fill="none"/></g><g transform="translate(49 -390)"><line y1="53" x2="37" transform="translate(1532.5 1511.5)" fill="none" stroke="#707070" stroke-width="1"/><path d="M14.416,6.225,0,8.767,14.416,6.225l-.086-.49.086.49.49-.086-.49.086,2.543,14.416Z" transform="matrix(0.999, 0.035, -0.035, 0.999, 1555.201, 1504.986)" fill="none" stroke="#707070" stroke-width="1"/><path d="M36.638,52.676l-14.53-1.784,14.53,1.784-.06.493Zm0,0,1.785-14.53-1.785,14.53.493.06ZM0,0,36.612,52.62Z" transform="translate(1532.5 1564.5)" fill="none" stroke="#707070" stroke-width="1"/></g><g transform="translate(49 -372)"><path d="M1579.5,1456h74.57v49.58" transform="translate(-39.463 -52)" fill="none" stroke="#707070" stroke-width="1"/><path d="M10.534,8.457l-.36.262.36-.262L0,0,10.534,8.457l9.634-6.993L10.534,8.457l.341.274Z" transform="matrix(0.996, -0.087, 0.087, 0.996, 1603.506, 1446.35)" fill="none" stroke="#707070" stroke-width="1"/></g><g transform="translate(1637 1201)" fill="#82c99d" stroke="#707070" stroke-width="1"><rect width="53" height="53" stroke="none"/><rect x="0.5" y="0.5" width="52" height="52" fill="none"/></g><text transform="translate(1621 1163)" fill="#4e4e4e" font-size="15" font-family="KohinoorTelugu-Regular, Kohinoor Telugu"><tspan x="1.3" y="16">Competition</tspan></text><text transform="translate(1664 1233)" fill="#4e4e4e" font-size="15" font-family="KohinoorTelugu-Regular, Kohinoor Telugu"><tspan x="-11.865" y="0">n+3</tspan></text><text transform="translate(1664 1127)" fill="#4e4e4e" font-size="15" font-family="KohinoorTelugu-Regular, Kohinoor Telugu"><tspan x="-11.865" y="0">n+3</tspan></text><text transform="translate(1390 1037)" fill="#4e4e4e" font-size="15" font-family="KohinoorTelugu-Regular, Kohinoor Telugu"><tspan x="-4.305" y="0">n</tspan></text><text transform="translate(1442 1037)" fill="#4e4e4e" font-size="15" font-family="KohinoorTelugu-Regular, Kohinoor Telugu"><tspan x="-11.302" y="0">n+1</tspan></text><text transform="translate(1493 1037)" fill="#4e4e4e" font-size="15" font-family="KohinoorTelugu-Regular, Kohinoor Telugu"><tspan x="-11.79" y="0">n+2</tspan></text><text transform="translate(1390 1179)" fill="#4e4e4e" font-size="15" font-family="KohinoorTelugu-Regular, Kohinoor Telugu"><tspan x="-4.305" y="0">n</tspan></text><text transform="translate(1442 1179)" fill="#4e4e4e" font-size="15" font-family="KohinoorTelugu-Regular, Kohinoor Telugu"><tspan x="-11.302" y="0">n+1</tspan></text><text transform="translate(1493 1179)" fill="#4e4e4e" font-size="15" font-family="KohinoorTelugu-Regular, Kohinoor Telugu"><tspan x="-11.79" y="0">n+2</tspan></text><g transform="translate(1519 1148)" fill="rgba(130,201,157,0.5)" stroke="#707070" stroke-width="1"><rect width="53" height="53" stroke="none"/><rect x="0.5" y="0.5" width="52" height="52" fill="none"/></g><g transform="translate(1519 1148)" fill="#82c99d" stroke="#707070" stroke-width="1"><rect width="53" height="53" stroke="none"/><rect x="0.5" y="0.5" width="52" height="52" fill="none"/></g><text transform="translate(1545 1180)" fill="#4e4e4e" font-size="15" font-family="KohinoorTelugu-Regular, Kohinoor Telugu"><tspan x="-11.865" y="0">n+3</tspan></text><g transform="translate(-1 -372)"><g transform="translate(1520 1377)" fill="rgba(135,132,216,0.5)" stroke="#707070" stroke-width="1"><rect width="53" height="53" stroke="none"/><rect x="0.5" y="0.5" width="52" height="52" fill="none"/></g><text transform="translate(1547 1409)" fill="#4e4e4e" font-size="15" font-family="KohinoorTelugu-Regular, Kohinoor Telugu"><tspan x="-11.865" y="0">n+3</tspan></text></g><g transform="translate(1544.7 1271)"><g transform="translate(0.3)" fill="rgba(130,201,157,0.5)" stroke="#707070" stroke-width="1"><rect width="24" height="23" stroke="none"/><rect x="0.5" y="0.5" width="23" height="22" fill="none"/></g><g transform="translate(0.3)" fill="rgba(130,201,157,0.5)" stroke="#707070" stroke-width="1"><rect width="24" height="23" stroke="none"/><rect x="0.5" y="0.5" width="23" height="22" fill="none"/></g><text transform="translate(90.3 17)" fill="#4e4e4e" font-size="15" font-family="KohinoorTelugu-Light, Kohinoor Telugu" font-weight="300"><tspan x="-55.493" y="0">Block just mined</tspan></text><g transform="translate(0.3)" fill="#82c99d" stroke="#707070" stroke-width="1"><rect width="24" height="23" stroke="none"/><rect x="0.5" y="0.5" width="23" height="22" fill="none"/></g></g><g transform="translate(1373.347 1271)"><g transform="translate(-0.347)" fill="rgba(130,201,157,0.5)" stroke="#707070" stroke-width="1"><rect width="24" height="23" stroke="none"/><rect x="0.5" y="0.5" width="23" height="22" fill="none"/></g><g transform="translate(-0.347)" fill="#bdbbe5" stroke="#707070" stroke-width="1"><rect width="24" height="23" stroke="none"/><rect x="0.5" y="0.5" width="23" height="22" fill="none"/></g><text transform="translate(75.653 17)" fill="#4e4e4e" font-size="15" font-family="KohinoorTelugu-Light, Kohinoor Telugu" font-weight="300"><tspan x="-42.233" y="0">Selfish block</tspan></text></g><g transform="translate(1205 1271)"><g fill="rgba(130,201,157,0.5)" stroke="#707070" stroke-width="1"><rect width="24" height="23" stroke="none"/><rect x="0.5" y="0.5" width="23" height="22" fill="none"/></g><g fill="rgba(130,201,157,0.5)" stroke="#707070" stroke-width="1"><rect width="24" height="23" stroke="none"/><rect x="0.5" y="0.5" width="23" height="22" fill="none"/></g><text transform="translate(34 17)" fill="#4e4e4e" font-size="15" font-family="KohinoorTelugu-Light, Kohinoor Telugu" font-weight="300"><tspan x="0" y="0">Public block</tspan></text><g fill="#badec8" stroke="#707070" stroke-width="1"><rect width="24" height="23" stroke="none"/><rect x="0.5" y="0.5" width="23" height="22" fill="none"/></g></g></g></svg>