<svg xmlns="http://www.w3.org/2000/svg" xmlns:xlink="http://www.w3.org/1999/xlink" width="469" height="150" viewBox="0 0 469 150"><defs><clipPath id="a"><rect width="209" height="53" fill="none"/></clipPath><clipPath id="b"><rect width="313" height="53" fill="none"/></clipPath></defs><g transform="translate(-539 -1113)"><g transform="translate(695 1113)" clip-path="url(#a)"><g transform="translate(-693 -1485)"><g transform="translate(693 1485)" fill="rgba(135,132,216,0.5)" stroke="#707070" stroke-width="1"><rect width="53" height="53" stroke="none"/><rect x="0.5" y="0.5" width="52" height="52" fill="none"/></g></g><g transform="translate(-641 -1485)"><g transform="translate(693 1485)" fill="rgba(135,132,216,0.5)" stroke="#707070" stroke-width="1"><rect width="53" height="53" stroke="none"/><rect x="0.5" y="0.5" width="52" height="52" fill="none"/></g></g><g transform="translate(-589 -1485)"><g transform="translate(693 1485)" fill="rgba(135,132,216,0.5)" stroke="#707070" stroke-width="1"><rect width="53" height="53" stroke="none"/><rect x="0.5" y="0.5" width="52" height="52" fill="none"/></g></g><g transform="translate(-537 -1485)"><g transform="translate(693 1485)" fill="rgba(135,132,216,0.5)" stroke="#707070" stroke-width="1"><rect width="53" height="53" stroke="none"/><rect x="0.5" y="0.5" width="52" height="52" fill="none"/></g></g><g transform="translate(-485 -1485)"><g transform="translate(693 1485)" fill="rgba(135,132,216,0.5)" stroke="#707070" stroke-width="1"><rect width="53" height="53" stroke="none"/><rect x="0.5" y="0.5" width="52" height="52" fill="none"/></g></g></g><text transform="translate(605 1146)" fill="#8784d8" font-size="25" font-family="Rajdhani-SemiBold, Rajdhani" font-weight="600"><tspan x="-65.2" y="0">Selfish chain</tspan></text><text transform="translate(606 1243)" fill="#82c99d" font-size="25" font-family="Rajdhani-SemiBold, Rajdhani" font-weight="600"><tspan x="-66.2" y="0">Honest chain</tspan></text><g transform="translate(695 1210)" clip-path="url(#b)"><g transform="translate(-693 -1485)"><g transform="translate(693 1485)" fill="rgba(130,201,157,0.5)" stroke="#707070" stroke-width="1"><rect width="53" height="53" stroke="none"/><rect x="0.5" y="0.5" width="52" height="52" fill="none"/></g></g><g transform="translate(-641 -1485)"><g transform="translate(693 1485)" fill="rgba(130,201,157,0.5)" stroke="#707070" stroke-width="1"><rect width="53" height="53" stroke="none"/><rect x="0.5" y="0.5" width="52" height="52" fill="none"/></g></g><g transform="translate(-589 -1485)"><g transform="translate(693 1485)" fill="rgba(130,201,157,0.5)" stroke="#707070" stroke-width="1"><rect width="53" height="53" stroke="none"/><rect x="0.5" y="0.5" width="52" height="52" fill="none"/></g></g><g transform="translate(-537 -1485)"><g transform="translate(693 1485)" fill="rgba(130,201,157,0.5)" stroke="#707070" stroke-width="1"><rect width="53" height="53" stroke="none"/><rect x="0.5" y="0.5" width="52" height="52" fill="none"/></g></g><g transform="translate(-485 -1485)"><g transform="translate(693 1485)" fill="rgba(130,201,157,0.5)" stroke="#707070" stroke-width="1"><rect width="53" height="53" stroke="none"/><rect x="0.5" y="0.5" width="52" height="52" fill="none"/></g></g><g transform="translate(-433 -1485)"><g transform="translate(693 1485)" fill="rgba(130,201,157,0.5)" stroke="#707070" stroke-width="1"><rect width="53" height="53" stroke="none"/><rect x="0.5" y="0.5" width="52" height="52" fill="none"/></g></g><g transform="translate(-381 -1485)"><g transform="translate(693 1485)" fill="rgba(130,201,157,0.5)" stroke="#707070" stroke-width="1"><rect width="53" height="53" stroke="none"/><rect x="0.5" y="0.5" width="52" height="52" fill="none"/></g></g></g><text transform="translate(722 1145)" fill="#4e4e4e" font-size="15" font-family="KohinoorTelugu-Regular, Kohinoor Telugu"><tspan x="-4.305" y="0">n</tspan></text><text transform="translate(774 1145)" fill="#4e4e4e" font-size="15" font-family="KohinoorTelugu-Regular, Kohinoor Telugu"><tspan x="-11.302" y="0">n+1</tspan></text><text transform="translate(825 1145)" fill="#4e4e4e" font-size="15" font-family="KohinoorTelugu-Regular, Kohinoor Telugu"><tspan x="-11.79" y="0">n+2</tspan></text><text transform="translate(929 1242)" fill="#4e4e4e" font-size="15" font-family="KohinoorTelugu-Regular, Kohinoor Telugu"><tspan x="-11.97" y="0">n+4</tspan></text><text transform="translate(981 1242)" fill="#4e4e4e" font-size="15" font-family="KohinoorTelugu-Regular, Kohinoor Telugu"><tspan x="-12.015" y="0">n+5</tspan></text><text transform="translate(876 1145)" fill="#4e4e4e" font-size="15" font-family="KohinoorTelugu-Regular, Kohinoor Telugu"><tspan x="-11.865" y="0">n+3</tspan></text><text transform="translate(722 1242)" fill="#4e4e4e" font-size="15" font-family="KohinoorTelugu-Regular, Kohinoor Telugu"><tspan x="-4.305" y="0">n</tspan></text><text transform="translate(773 1242)" fill="#4e4e4e" font-size="15" font-family="KohinoorTelugu-Regular, Kohinoor Telugu"><tspan x="-11.302" y="0">n+1</tspan></text><text transform="translate(825 1242)" fill="#4e4e4e" font-size="15" font-family="KohinoorTelugu-Regular, Kohinoor Telugu"><tspan x="-11.79" y="0">n+2</tspan></text><text transform="translate(876 1242)" fill="#4e4e4e" font-size="15" font-family="KohinoorTelugu-Regular, Kohinoor Telugu"><tspan x="-11.865" y="0">n+3</tspan></text></g></svg>